<svg xmlns="http://www.w3.org/2000/svg" width="512" height="512"><path d="M447.056 145.922L316.643 277.046 449.616 419.78c1.419-4.37 2.384-8.942 2.384-13.78V166c0-7.251-1.886-14.006-4.944-20.078zM407 121H45c-6.597 0-12.817 1.507-18.468 4.069l188.833 188.925c5.654 5.713 15.601 5.713 21.284 0l188.82-188.925C419.819 122.507 413.597 121 407 121z" data-original="#000000" class="active-path" data-old_color="#000000" fill="#FFF"/><path d="M295.474 298.356l-37.541 36.79c-8.525 8.569-19.863 13.271-31.934 13.271-12.071 0-23.408-4.702-31.919-13.271l-35.276-34.506L24.192 445.661C30.445 448.957 37.454 451 45 451h362c8.87 0 17.091-2.664 24.067-7.112L295.474 298.356zM4.944 145.921C1.886 151.992 0 158.749 0 166v240a44.721 44.721 0 003.655 17.706L137.648 279.34 4.944 145.921zM467 61H105c-19.53 0-36.024 12.578-42.237 30H407c41.353 0 75 33.647 75 75v222.237c17.422-6.213 30-22.707 30-42.237V106c0-24.814-20.186-45-45-45z" data-original="#000000" class="active-path" data-old_color="#000000" fill="#FFF"/></svg>