<svg xmlns="http://www.w3.org/2000/svg" width="640" height="640" viewBox="0 0 480 480"><path d="M467.5 216.25L263.75 12.5c-6.25-6.25-15-10-23.75-10s-17.5 3.75-23.75 10L172.5 56.25l51.25 51.25c5-2.5 10-3.75 16.25-3.75 21.25 0 37.5 16.25 37.5 37.5 0 6.25-1.25 11.25-3.75 16.25l50 50c5-2.5 10-3.75 16.25-3.75 21.25 0 37.5 16.25 37.5 37.5s-16.25 37.5-37.5 37.5-37.5-16.25-37.5-37.5c0-6.25 1.25-11.25 3.75-16.25l-50-50c-1.25 0-2.5 1.25-3.75 1.25v130c15 5 25 18.75 25 35 0 21.25-16.25 37.5-37.5 37.5s-37.5-16.25-37.5-37.5c0-16.25 10-30 25-35V175c-15-5-25-18.75-25-35 0-6.25 1.25-11.25 3.75-16.25L155 72.5 12.5 216.25c-6.25 6.25-10 15-10 23.75s3.75 17.5 10 23.75L216.25 467.5c6.25 6.25 15 10 23.75 10s17.5-3.75 23.75-10L467.5 263.75c6.25-6.25 10-15 10-23.75s-3.75-17.5-10-23.75zm0 0" fill="#f4511e"/></svg>