<svg xmlns="http://www.w3.org/2000/svg" viewBox="0 0 509.997 509.997" width="512" height="512"><path d="M269.986 139.309h-29.975c-17.008.228-30.623 14.177-30.441 31.185v25.786a28.944 28.944 0 01-2.979 12.567l-1.024 2.234a9.678 9.678 0 00-1.024 4.282v18.06a9.788 9.788 0 002.793 6.889 28.156 28.156 0 017.633 14.615l.465 2.234a51.647 51.647 0 009.216 22.9 15.094 15.094 0 012.7 8.285v13.126l28.3 7.075 26.996-6.796v-13.405c.047-2.856.92-5.636 2.513-8.006a52.176 52.176 0 009.402-23.18l.465-2.327a28.236 28.236 0 017.633-14.522 9.793 9.793 0 002.793-6.889v-18.059a9.675 9.675 0 00-1.024-4.282l-1.024-2.141a29.652 29.652 0 01-2.979-12.66v-25.786c.185-17.007-13.431-30.956-30.439-31.185zm54.365 199.122l-25.414 22.063a9.19 9.19 0 01-6.051 2.234 9.323 9.323 0 01-6.423-2.513l-30.813-29.231-30.813 29.231a9.32 9.32 0 01-6.423 2.513 9.19 9.19 0 01-6.051-2.234l-25.972-22.528-19.084 12.102a16.368 16.368 0 00-3.165 2.327c54.421 38.602 127.292 38.602 181.713 0a26.509 26.509 0 00-3.072-2.327l-18.432-11.637z" data-original="#000000" class="active-path" data-old_color="#000000" fill="#FFF"/><path data-original="#000000" class="active-path" data-old_color="#000000" fill="#FFF" d="M274.362 323.071l18.804 17.78 14.801-12.846-15.173-9.589zM98.327 416.534a58.77 58.77 0 01-16.943-31.092l-1.117-3.351-74.938 75.031 40.215 4.468a9.128 9.128 0 018.192 8.192l4.468 40.215 83.503-83.316c-2.886-.372-5.958-.559-9.03-.838a60.232 60.232 0 01-34.35-9.309z"/><path d="M400.127 401.919a45.433 45.433 0 0010.705-21.876 111.586 111.586 0 016.703-17.873c.11-.21.203-.428.279-.652a40.041 40.041 0 014.655-7.261 75.79 75.79 0 0122.807-16.756 46.505 46.505 0 0019.456-15.174 44.964 44.964 0 00-.093-23.924 75.267 75.267 0 01-.838-28.486 72.024 72.024 0 0113.033-24.576 45.576 45.576 0 0010.892-22.249 45.571 45.571 0 00-10.892-22.249 72.024 72.024 0 01-13.033-24.576 75.268 75.268 0 01.838-28.486 44.041 44.041 0 00.093-23.924 45.917 45.917 0 00-19.456-15.174 75.79 75.79 0 01-22.807-16.756 73.58 73.58 0 01-11.636-25.786 44.627 44.627 0 00-10.705-21.876 46.815 46.815 0 00-24.017-5.399 77.445 77.445 0 01-28.113-5.399 74.194 74.194 0 01-21.504-18.06A46.13 46.13 0 00306.852.047a45.943 45.943 0 00-23.738 5.399 77.875 77.875 0 01-28.113 7.168 77.875 77.875 0 01-28.113-7.168A45.933 45.933 0 00203.15.047a46.677 46.677 0 00-19.642 15.36 74.194 74.194 0 01-21.504 18.06 77.403 77.403 0 01-28.113 5.399 46.813 46.813 0 00-24.017 5.399 45.433 45.433 0 00-10.705 21.876 73.615 73.615 0 01-11.636 25.786 75.79 75.79 0 01-22.807 16.756 46.513 46.513 0 00-19.456 15.174 44.964 44.964 0 00.093 23.924 75.267 75.267 0 01.838 28.486 72.024 72.024 0 01-13.033 24.576 45.576 45.576 0 00-10.892 22.249 45.571 45.571 0 0010.892 22.249 72.024 72.024 0 0113.033 24.576 75.268 75.268 0 01-.838 28.486 44.041 44.041 0 00-.093 23.924 46.513 46.513 0 0019.456 15.174 75.807 75.807 0 0122.807 16.756 40.095 40.095 0 014.655 7.261c.076.224.17.442.279.652a111.717 111.717 0 016.703 17.873 44.627 44.627 0 0010.705 21.876 46.815 46.815 0 0024.017 5.399 77.445 77.445 0 0128.113 5.399 74.194 74.194 0 0121.504 18.06 46.13 46.13 0 0019.642 15.36 45.933 45.933 0 0023.738-5.399 77.875 77.875 0 0128.113-7.168 77.875 77.875 0 0128.113 7.168 46.886 46.886 0 0023.738 5.399 46.67 46.67 0 0019.642-15.36 74.194 74.194 0 0121.504-18.06 77.445 77.445 0 0128.113-5.399 46.81 46.81 0 0024.015-5.399zm-145.128-1.955c-97.684 0-176.873-79.189-176.873-176.873S157.315 46.219 254.999 46.219s176.873 79.189 176.873 176.873c-.089 97.647-79.226 176.784-176.873 176.872zm174.731-17.873l-1.117 3.351a59.398 59.398 0 01-16.943 31.092 59.527 59.527 0 01-34.351 9.309c-3.072.279-6.051.466-8.937.838l83.409 83.316 4.468-40.215a9.212 9.212 0 018.192-8.192l40.215-4.468-74.936-75.031z" data-original="#000000" class="active-path" data-old_color="#000000" fill="#FFF"/><path data-original="#000000" class="active-path" data-old_color="#000000" fill="#FFF" d="M218.135 340.851l18.804-17.78-19.363-4.841-14.801 9.309z"/><path d="M402.813 166.38c-23.436-61.234-82.249-101.637-147.815-101.543-65.566-.094-124.379 40.309-147.815 101.543-23.436 61.234-6.625 130.58 42.25 174.285a49.358 49.358 0 018.006-6.423l25.135-15.919c.279-.093.372-.279.652-.372l25.507-16.105v-12.102a69.377 69.377 0 01-11.636-29.231l-.372-1.955a9.72 9.72 0 00-2.7-5.213 28.651 28.651 0 01-8.099-19.921v-18.06a28.925 28.925 0 012.886-12.567l1.024-2.048a10.205 10.205 0 001.117-4.468v-25.786c-.187-27.293 21.767-49.579 49.059-49.804h29.975c27.292.224 49.246 22.511 49.059 49.804v25.786c.037 1.583.418 3.14 1.117 4.561l1.024 1.955a28.942 28.942 0 012.886 12.567v18.06a28.651 28.651 0 01-8.099 19.921 9.8 9.8 0 00-2.7 5.12l-.372 2.048a70.296 70.296 0 01-11.636 29.231v12.102l51.386 32.489a43.762 43.762 0 017.913 6.33c48.873-43.705 65.684-113.05 42.248-174.285z" data-original="#000000" class="active-path" data-old_color="#000000" fill="#FFF"/></svg>