<svg xmlns="http://www.w3.org/2000/svg" width="640" height="640" viewBox="0 0 480 480"><path d="M154.285 25.363c-12.12 0-23.367 2.715-33.324 8.45-31.129 17.967-42.977 61.76-36.695 116.288C33.914 171.926 1.922 204.062 1.922 240s31.992 68.074 82.344 89.898c-6.278 54.524 5.566 98.32 36.695 116.29 9.937 5.734 21.184 8.449 33.324 8.449 25.844 0 55.715-12.973 85.715-35.223 30.004 22.25 59.91 35.223 85.754 35.223 12.121 0 23.363-2.715 33.324-8.45 31.125-17.968 42.973-61.761 36.695-116.289 50.332-21.824 82.305-53.968 82.305-89.898 0-35.938-31.992-68.074-82.344-89.898 6.278-54.524-5.566-98.32-36.695-116.29-9.937-5.753-21.184-8.449-33.324-8.449C299.87 25.363 270 38.336 240 60.586c-30.004-22.25-59.879-35.223-85.715-35.223zm0 34.719c15.508 0 36.016 8.246 58.281 23.523-13.093 12.356-25.914 26.403-38.246 42.043-20.007 2.868-38.87 7.051-56.343 12.286-.094-1.211-.317-2.485-.387-3.684-2.125-35.313 5.633-61.64 20.73-70.367 4.465-2.582 9.676-3.801 15.965-3.801zm171.43 0c6.27 0 11.5 1.219 15.965 3.8 15.097 8.708 22.855 35.056 20.73 70.368-.07 1.2-.293 2.473-.387 3.684-17.484-5.239-36.359-9.414-56.382-12.286-12.332-15.64-25.114-29.691-38.207-42.043 22.265-15.273 42.78-23.523 58.28-23.523zM240 105.652a318.225 318.225 0 0116.121 15.735c-5.355-.18-10.676-.426-16.121-.426-5.43 0-10.742.246-16.082.426A317.836 317.836 0 01240 105.652zm0 50.028a433.9 433.9 0 0146.809 2.52c9.02 12.253 17.906 25.214 26.234 39.64 7.984 13.828 15.047 27.984 21.273 42.16-6.23 14.184-13.285 28.36-21.273 42.2-8.305 14.386-17.168 27.257-26.156 39.484-15.309 1.675-31.012 2.636-46.887 2.636a433.9 433.9 0 01-46.809-2.52c-9.02-12.253-17.906-25.175-26.234-39.6-7.988-13.84-15.043-28.016-21.273-42.2 6.226-14.176 13.289-28.332 21.273-42.16 8.309-14.387 17.164-27.297 26.156-39.524 15.309-1.675 31.012-2.636 46.887-2.636zm94.164 10.734c7.871 1.899 15.438 3.953 22.55 6.238-1.612 7.282-3.581 14.703-5.812 22.203-2.554-4.789-5.027-9.597-7.789-14.375-2.84-4.917-5.992-9.335-8.949-14.066zm-188.367.04c-2.95 4.718-6.082 9.124-8.91 14.026-2.758 4.782-5.239 9.586-7.79 14.375-2.234-7.515-4.238-14.945-5.85-22.242 7.245-2.289 14.792-4.316 22.55-6.16zm-55.219 18.91c4.184 17.648 9.98 35.945 17.438 54.597-7.442 18.61-13.215 36.871-17.399 54.484-34.55-16.687-53.976-37.453-53.976-54.445 0-17.438 18.882-37.313 50.53-53.125 1.079-.543 2.306-.984 3.407-1.512zm298.805.19c34.55 16.688 53.976 37.454 53.976 54.446 0 17.438-18.882 37.313-50.53 53.125-1.079.543-2.306.984-3.407 1.512-4.184-17.66-9.938-35.973-17.402-54.637 7.433-18.594 13.183-36.848 17.363-54.445zM240 200.32c-21.922 0-39.68 17.758-39.68 39.68s17.758 39.68 39.68 39.68 39.68-17.758 39.68-39.68-17.758-39.68-39.68-39.68zm-110.902 84.825c2.554 4.793 5.066 9.593 7.828 14.375 2.836 4.914 5.957 9.335 8.91 14.066-7.871-1.899-15.438-3.953-22.55-6.238 1.612-7.286 3.581-14.7 5.812-22.203zm221.804.039c2.235 7.507 4.239 14.914 5.852 22.203-7.246 2.289-14.793 4.316-22.55 6.16 2.948-4.719 6.081-9.125 8.91-14.027 2.753-4.77 5.241-9.555 7.788-14.336zm-232.925 56.882c17.484 5.239 36.359 9.414 56.382 12.286 12.336 15.648 25.11 29.726 38.207 42.082-22.265 15.27-42.773 23.52-58.28 23.52-6.27 0-11.5-1.255-15.966-3.837-15.097-8.707-22.855-35.015-20.73-70.328.07-1.21.289-2.496.387-3.723zm244.046 0c.094 1.227.317 2.512.387 3.723 2.125 35.313-5.633 61.602-20.73 70.328-4.465 2.582-9.676 3.836-15.965 3.836-15.508 0-36.016-8.246-58.281-23.52 13.096-12.358 25.906-26.433 38.246-42.08 20.007-2.868 38.87-7.051 56.343-12.286zM223.88 358.613c5.355.18 10.676.426 16.121.426 5.445 0 10.766-.246 16.121-.426A316.56 316.56 0 01240 374.348a318.225 318.225 0 01-16.121-15.735zm0 0" fill="#61dbfb"/></svg>