<?xml version="1.0" encoding="UTF-8"?>
<svg xmlns="http://www.w3.org/2000/svg" xmlns:xlink="http://www.w3.org/1999/xlink" width="480pt" height="480pt" viewBox="0 0 480 480" version="1.1">
<g id="surface13063493">
<path style=" stroke:none;fill-rule:nonzero;fill:rgb(95.686275%,31.764706%,11.764706%);fill-opacity:1;" d="M 467.5 216.25 L 263.75 12.5 C 257.5 6.25 248.75 2.5 240 2.5 C 231.25 2.5 222.5 6.25 216.25 12.5 L 172.5 56.25 L 223.75 107.5 C 228.75 105 233.75 103.75 240 103.75 C 261.25 103.75 277.5 120 277.5 141.25 C 277.5 147.5 276.25 152.5 273.75 157.5 L 323.75 207.5 C 328.75 205 333.75 203.75 340 203.75 C 361.25 203.75 377.5 220 377.5 241.25 C 377.5 262.5 361.25 278.75 340 278.75 C 318.75 278.75 302.5 262.5 302.5 241.25 C 302.5 235 303.75 230 306.25 225 L 256.25 175 C 255 175 253.75 176.25 252.5 176.25 L 252.5 306.25 C 267.5 311.25 277.5 325 277.5 341.25 C 277.5 362.5 261.25 378.75 240 378.75 C 218.75 378.75 202.5 362.5 202.5 341.25 C 202.5 325 212.5 311.25 227.5 306.25 L 227.5 175 C 212.5 170 202.5 156.25 202.5 140 C 202.5 133.75 203.75 128.75 206.25 123.75 L 155 72.5 L 12.5 216.25 C 6.25 222.5 2.5 231.25 2.5 240 C 2.5 248.75 6.25 257.5 12.5 263.75 L 216.25 467.5 C 222.5 473.75 231.25 477.5 240 477.5 C 248.75 477.5 257.5 473.75 263.75 467.5 L 467.5 263.75 C 473.75 257.5 477.5 248.75 477.5 240 C 477.5 231.25 473.75 222.5 467.5 216.25 Z M 467.5 216.25 "/>
</g>
</svg>
