<?xml version="1.0"?>
<svg xmlns="http://www.w3.org/2000/svg" xmlns:xlink="http://www.w3.org/1999/xlink" version="1.1" id="Capa_1" x="0px" y="0px" viewBox="0 0 509.997 509.997" style="enable-background:new 0 0 509.997 509.997;" xml:space="preserve" width="512px" height="512px" class=""><g><g>
	<g>
		<g>
			<path d="M269.986,139.309h-29.975c-17.008,0.228-30.623,14.177-30.441,31.185v25.786c-0.034,4.36-1.052,8.656-2.979,12.567     l-1.024,2.234c-0.666,1.33-1.016,2.795-1.024,4.282v18.06c-0.011,2.574,0.992,5.049,2.793,6.889     c3.946,4.001,6.604,9.091,7.633,14.615l0.465,2.234c1.176,8.266,4.338,16.124,9.216,22.9c1.695,2.436,2.634,5.318,2.7,8.285     v13.126l28.3,7.075l26.996-6.796v-13.405c0.047-2.856,0.92-5.636,2.513-8.006c4.967-6.85,8.194-14.805,9.402-23.18l0.465-2.327     c1.051-5.49,3.708-10.544,7.633-14.522c1.8-1.84,2.804-4.315,2.793-6.889v-18.059c-0.008-1.487-0.358-2.953-1.024-4.282     l-1.024-2.141c-1.918-3.948-2.935-8.272-2.979-12.66v-25.786C300.61,153.487,286.994,139.538,269.986,139.309z" data-original="#000000" class="active-path" data-old_color="#000000" fill="#FFFFFF"/>
			<path d="M324.351,338.431l-25.414,22.063c-1.681,1.451-3.83,2.245-6.051,2.234c-2.384,0.014-4.682-0.885-6.423-2.513     l-30.813-29.231l-30.813,29.231c-1.741,1.628-4.04,2.528-6.423,2.513c-2.221,0.011-4.37-0.783-6.051-2.234l-25.972-22.528     l-19.084,12.102c-1.145,0.646-2.207,1.427-3.165,2.327c54.421,38.602,127.292,38.602,181.713,0     c-0.966-0.849-1.993-1.627-3.072-2.327L324.351,338.431z" data-original="#000000" class="active-path" data-old_color="#000000" fill="#FFFFFF"/>
			<polygon points="274.362,323.071 293.166,340.851 307.967,328.005 292.794,318.416    " data-original="#000000" class="active-path" data-old_color="#000000" fill="#FFFFFF"/>
			<path d="M98.327,416.534c-8.71-8.376-14.626-19.233-16.943-31.092l-1.117-3.351L5.329,457.122l40.215,4.468     c4.336,0.426,7.766,3.856,8.192,8.192l4.468,40.215l83.503-83.316c-2.886-0.372-5.958-0.559-9.03-0.838     C120.551,426.271,108.578,423.026,98.327,416.534z" data-original="#000000" class="active-path" data-old_color="#000000" fill="#FFFFFF"/>
			<path d="M400.127,401.919c5.493-6.182,9.194-13.746,10.705-21.876c1.72-6.138,3.962-12.118,6.703-17.873     c0.11-0.21,0.203-0.428,0.279-0.652c1.286-2.581,2.846-5.015,4.655-7.261c6.483-6.968,14.22-12.652,22.807-16.756     c7.733-3.214,14.455-8.456,19.456-15.174c2.13-7.837,2.098-16.104-0.093-23.924c-2.091-9.355-2.375-19.024-0.838-28.486     c2.706-8.961,7.133-17.309,13.033-24.576c5.615-6.268,9.385-13.969,10.892-22.249c-1.507-8.28-5.276-15.98-10.892-22.249     c-5.9-7.267-10.327-15.615-13.033-24.576c-1.537-9.462-1.253-19.13,0.838-28.486c2.238-7.813,2.27-16.094,0.093-23.924     c-4.979-6.738-11.708-11.986-19.456-15.174c-8.587-4.104-16.324-9.788-22.807-16.756c-5.51-7.762-9.462-16.519-11.636-25.786     c-1.471-8.144-5.178-15.718-10.705-21.876c-7.381-3.91-15.673-5.774-24.017-5.399c-9.625-0.037-19.159-1.868-28.113-5.399     c-8.252-4.596-15.551-10.726-21.504-18.06c-5.013-6.826-11.809-12.14-19.642-15.36c-8.254-0.368-16.455,1.498-23.738,5.399     c-8.839,4.129-18.376,6.561-28.113,7.168c-9.737-0.607-19.274-3.039-28.113-7.168c-7.283-3.902-15.484-5.767-23.738-5.399     c-7.819,3.244-14.609,8.554-19.642,15.36c-5.953,7.334-13.252,13.464-21.504,18.06c-8.954,3.532-18.488,5.363-28.113,5.399     c-8.344-0.375-16.637,1.489-24.017,5.399c-5.493,6.182-9.194,13.746-10.705,21.876c-2.175,9.267-6.127,18.024-11.636,25.786     c-6.483,6.968-14.22,12.652-22.807,16.756c-7.733,3.214-14.455,8.457-19.456,15.174c-2.13,7.837-2.098,16.104,0.093,23.924     c2.091,9.355,2.375,19.024,0.838,28.486c-2.706,8.961-7.133,17.309-13.033,24.576c-5.615,6.268-9.385,13.969-10.892,22.249     c1.507,8.28,5.276,15.98,10.892,22.249c5.9,7.267,10.327,15.615,13.033,24.576c1.537,9.462,1.253,19.13-0.838,28.486     c-2.238,7.813-2.27,16.094-0.093,23.924c5.001,6.717,11.723,11.96,19.456,15.174c8.587,4.104,16.324,9.789,22.807,16.756     c1.808,2.246,3.369,4.68,4.655,7.261c0.076,0.224,0.17,0.442,0.279,0.652c2.74,5.756,4.983,11.735,6.703,17.873     c1.471,8.144,5.178,15.718,10.705,21.876c7.381,3.91,15.673,5.774,24.017,5.399c9.625,0.037,19.159,1.868,28.113,5.399     c8.252,4.596,15.551,10.726,21.504,18.06c5.013,6.826,11.809,12.14,19.642,15.36c8.254,0.368,16.455-1.497,23.738-5.399     c8.839-4.129,18.376-6.561,28.113-7.168c9.737,0.607,19.274,3.039,28.113,7.168c7.299,3.858,15.488,5.721,23.738,5.399     c7.819-3.244,14.609-8.553,19.642-15.36c5.953-7.334,13.252-13.464,21.504-18.06c8.954-3.531,18.488-5.362,28.113-5.399     C384.454,407.693,392.747,405.829,400.127,401.919z M254.999,399.964c-97.684,0-176.873-79.189-176.873-176.873     S157.315,46.219,254.999,46.219s176.873,79.189,176.873,176.873C431.783,320.739,352.646,399.876,254.999,399.964z" data-original="#000000" class="active-path" data-old_color="#000000" fill="#FFFFFF"/>
			<path d="M429.73,382.091l-1.117,3.351c-2.355,11.845-8.266,22.692-16.943,31.092c-10.233,6.533-22.219,9.782-34.351,9.309     c-3.072,0.279-6.051,0.466-8.937,0.838l83.409,83.316l4.468-40.215c0.457-4.321,3.871-7.735,8.192-8.192l40.215-4.468     L429.73,382.091z" data-original="#000000" class="active-path" data-old_color="#000000" fill="#FFFFFF"/>
			<polygon points="218.135,340.851 236.939,323.071 217.576,318.23 202.775,327.539    " data-original="#000000" class="active-path" data-old_color="#000000" fill="#FFFFFF"/>
			<path d="M402.813,166.38c-23.436-61.234-82.249-101.637-147.815-101.543c-65.566-0.094-124.379,40.309-147.815,101.543     c-23.436,61.234-6.625,130.58,42.25,174.285c2.438-2.413,5.121-4.566,8.006-6.423l25.135-15.919     c0.279-0.093,0.372-0.279,0.652-0.372l25.507-16.105v-12.102c-6.066-8.724-10.047-18.725-11.636-29.231l-0.372-1.955     c-0.341-1.974-1.284-3.795-2.7-5.213c-5.184-5.337-8.088-12.481-8.099-19.921v-18.06c0.004-4.353,0.991-8.649,2.886-12.567     l1.024-2.048c0.708-1.385,1.09-2.913,1.117-4.468v-25.786c-0.187-27.293,21.767-49.579,49.059-49.804h29.975     c27.292,0.224,49.246,22.511,49.059,49.804v25.786c0.037,1.583,0.418,3.14,1.117,4.561l1.024,1.955     c1.895,3.919,2.881,8.214,2.886,12.567v18.06c-0.011,7.44-2.915,14.584-8.099,19.921c-1.395,1.396-2.336,3.18-2.7,5.12     l-0.372,2.048c-1.62,10.498-5.599,20.491-11.636,29.231v12.102l51.386,32.489c2.874,1.796,5.529,3.921,7.913,6.33     C409.438,296.96,426.249,227.615,402.813,166.38z" data-original="#000000" class="active-path" data-old_color="#000000" fill="#FFFFFF"/>
		</g>
	</g>
</g></g> </svg>
