<?xml version="1.0" encoding="UTF-8"?>
<svg xmlns="http://www.w3.org/2000/svg" xmlns:xlink="http://www.w3.org/1999/xlink" width="480pt" height="480pt" viewBox="0 0 480 480" version="1.1">
<g id="surface12794318">
<path style=" stroke:none;fill-rule:nonzero;fill:rgb(38.039216%,85.882353%,98.431373%);fill-opacity:1;" d="M 154.285156 25.363281 C 142.164062 25.363281 130.917969 28.078125 120.960938 33.8125 C 89.832031 51.78125 77.984375 95.574219 84.265625 150.101562 C 33.914062 171.925781 1.921875 204.0625 1.921875 240 C 1.921875 275.9375 33.914062 308.074219 84.265625 329.898438 C 77.988281 384.421875 89.832031 428.21875 120.960938 446.1875 C 130.898438 451.921875 142.144531 454.636719 154.285156 454.636719 C 180.128906 454.636719 210 441.664062 240 419.414062 C 270.003906 441.664062 299.910156 454.636719 325.753906 454.636719 C 337.875 454.636719 349.117188 451.921875 359.078125 446.1875 C 390.203125 428.21875 402.050781 384.425781 395.773438 329.898438 C 446.105469 308.074219 478.078125 275.929688 478.078125 240 C 478.078125 204.0625 446.085938 171.925781 395.734375 150.101562 C 402.011719 95.578125 390.167969 51.78125 359.039062 33.8125 C 349.101562 28.058594 337.855469 25.363281 325.714844 25.363281 C 299.871094 25.363281 270 38.335938 240 60.585938 C 209.996094 38.335938 180.121094 25.363281 154.285156 25.363281 Z M 154.285156 60.082031 C 169.792969 60.082031 190.300781 68.328125 212.566406 83.605469 C 199.472656 95.960938 186.652344 110.007812 174.320312 125.648438 C 154.3125 128.515625 135.449219 132.699219 117.976562 137.933594 C 117.882812 136.722656 117.660156 135.449219 117.589844 134.25 C 115.464844 98.9375 123.222656 72.609375 138.320312 63.882812 C 142.785156 61.300781 147.996094 60.082031 154.285156 60.082031 Z M 325.714844 60.082031 C 331.984375 60.082031 337.214844 61.300781 341.679688 63.882812 C 356.777344 72.589844 364.535156 98.9375 362.410156 134.25 C 362.339844 135.449219 362.117188 136.722656 362.023438 137.933594 C 344.539062 132.695312 325.664062 128.519531 305.640625 125.648438 C 293.308594 110.007812 280.527344 95.957031 267.433594 83.605469 C 289.699219 68.332031 310.214844 60.082031 325.714844 60.082031 Z M 240 105.652344 C 245.378906 110.550781 250.71875 115.722656 256.121094 121.386719 C 250.765625 121.207031 245.445312 120.960938 240 120.960938 C 234.570312 120.960938 229.257812 121.207031 223.917969 121.386719 C 229.316406 115.730469 234.625 110.542969 240 105.652344 Z M 240 155.679688 C 256.441406 155.679688 272.023438 156.597656 286.808594 158.199219 C 295.828125 170.453125 304.714844 183.414062 313.042969 197.839844 C 321.027344 211.667969 328.089844 225.824219 334.316406 240 C 328.085938 254.183594 321.03125 268.359375 313.042969 282.199219 C 304.738281 296.585938 295.875 309.457031 286.886719 321.683594 C 271.578125 323.359375 255.875 324.320312 240 324.320312 C 223.558594 324.320312 207.976562 323.402344 193.191406 321.800781 C 184.171875 309.546875 175.285156 296.625 166.957031 282.199219 C 158.96875 268.359375 151.914062 254.183594 145.683594 240 C 151.910156 225.824219 158.972656 211.667969 166.957031 197.839844 C 175.265625 183.453125 184.121094 170.542969 193.113281 158.316406 C 208.421875 156.640625 224.125 155.679688 240 155.679688 Z M 334.164062 166.414062 C 342.035156 168.3125 349.601562 170.367188 356.714844 172.652344 C 355.101562 179.933594 353.132812 187.355469 350.902344 194.855469 C 348.347656 190.066406 345.875 185.257812 343.113281 180.480469 C 340.273438 175.5625 337.121094 171.144531 334.164062 166.414062 Z M 145.796875 166.453125 C 142.847656 171.171875 139.714844 175.578125 136.886719 180.480469 C 134.128906 185.261719 131.648438 190.066406 129.097656 194.855469 C 126.863281 187.339844 124.859375 179.910156 123.246094 172.613281 C 130.492188 170.324219 138.039062 168.296875 145.796875 166.453125 Z M 90.578125 185.363281 C 94.761719 203.011719 100.558594 221.308594 108.015625 239.960938 C 100.574219 258.570312 94.800781 276.832031 90.617188 294.445312 C 56.066406 277.757812 36.640625 256.992188 36.640625 240 C 36.640625 222.5625 55.523438 202.6875 87.171875 186.875 C 88.25 186.332031 89.476562 185.890625 90.578125 185.363281 Z M 389.382812 185.554688 C 423.933594 202.242188 443.359375 223.007812 443.359375 240 C 443.359375 257.4375 424.476562 277.3125 392.828125 293.125 C 391.75 293.667969 390.523438 294.109375 389.421875 294.636719 C 385.238281 276.976562 379.484375 258.664062 372.019531 240 C 379.453125 221.40625 385.203125 203.152344 389.382812 185.554688 Z M 240 200.320312 C 218.078125 200.320312 200.320312 218.078125 200.320312 240 C 200.320312 261.921875 218.078125 279.679688 240 279.679688 C 261.921875 279.679688 279.679688 261.921875 279.679688 240 C 279.679688 218.078125 261.921875 200.320312 240 200.320312 Z M 129.097656 285.144531 C 131.652344 289.9375 134.164062 294.738281 136.925781 299.519531 C 139.761719 304.433594 142.882812 308.855469 145.835938 313.585938 C 137.964844 311.6875 130.398438 309.632812 123.285156 307.347656 C 124.898438 300.0625 126.867188 292.648438 129.097656 285.144531 Z M 350.902344 285.183594 C 353.136719 292.691406 355.140625 300.097656 356.753906 307.386719 C 349.507812 309.675781 341.960938 311.703125 334.203125 313.546875 C 337.152344 308.828125 340.285156 304.421875 343.113281 299.519531 C 345.867188 294.75 348.355469 289.964844 350.902344 285.183594 Z M 117.976562 342.066406 C 135.460938 347.304688 154.335938 351.480469 174.359375 354.351562 C 186.695312 370 199.46875 384.078125 212.566406 396.433594 C 190.300781 411.703125 169.792969 419.953125 154.285156 419.953125 C 148.015625 419.953125 142.785156 418.699219 138.320312 416.117188 C 123.222656 407.410156 115.464844 381.101562 117.589844 345.789062 C 117.660156 344.578125 117.878906 343.292969 117.976562 342.066406 Z M 362.023438 342.066406 C 362.117188 343.292969 362.339844 344.578125 362.410156 345.789062 C 364.535156 381.101562 356.777344 407.390625 341.679688 416.117188 C 337.214844 418.699219 332.003906 419.953125 325.714844 419.953125 C 310.207031 419.953125 289.699219 411.707031 267.433594 396.433594 C 280.53125 384.074219 293.339844 370 305.679688 354.351562 C 325.6875 351.484375 344.550781 347.300781 362.023438 342.066406 Z M 223.878906 358.613281 C 229.234375 358.792969 234.554688 359.039062 240 359.039062 C 245.445312 359.039062 250.765625 358.792969 256.121094 358.613281 C 250.71875 364.277344 245.378906 369.453125 240 374.347656 C 234.621094 369.449219 229.28125 364.277344 223.878906 358.613281 Z M 223.878906 358.613281 "/>
</g>
</svg>
